<svg width="18" height="18" viewBox="0 0 18 18" fill="none" xmlns="http://www.w3.org/2000/svg">
<path d="M16.4165 0.664062H1.58317C1.34006 0.664063 1.1069 0.76064 0.934989 0.932548C0.763081 1.10446 0.666504 1.33761 0.666504 1.58073V16.4141C0.666504 16.6572 0.763081 16.8903 0.934989 17.0622C1.1069 17.2342 1.34006 17.3307 1.58317 17.3307H9.5665V10.8724H7.39984V8.3724H9.5665V6.4974C9.52162 6.05719 9.57359 5.6125 9.71877 5.19451C9.86394 4.77652 10.0988 4.39535 10.4069 4.07774C10.715 3.76013 11.0888 3.51376 11.5022 3.35593C11.9156 3.19809 12.3585 3.13261 12.7998 3.16406C13.4484 3.16007 14.0967 3.19346 14.7415 3.26406V5.51406H13.4165C12.3665 5.51406 12.1665 6.01406 12.1665 6.73906V8.3474H14.6665L14.3415 10.8474H12.1665V17.3307H16.4165C16.5369 17.3307 16.6561 17.307 16.7673 17.261C16.8785 17.2149 16.9796 17.1474 17.0647 17.0622C17.1498 16.9771 17.2173 16.8761 17.2634 16.7649C17.3095 16.6536 17.3332 16.5344 17.3332 16.4141V1.58073C17.3332 1.46035 17.3095 1.34115 17.2634 1.22994C17.2173 1.11872 17.1498 1.01767 17.0647 0.932548C16.9796 0.847428 16.8785 0.779906 16.7673 0.73384C16.6561 0.687773 16.5369 0.664062 16.4165 0.664062Z" fill="white"/>
</svg>
